<svg width="29" height="25" viewBox="0 0 29 25" fill="none" xmlns="http://www.w3.org/2000/svg">
<path d="M22.7375 1.00069C22.1237 1.0709 21.5167 1.27248 21.0954 1.5488C20.8916 1.68243 20.6379 1.94516 20.4545 2.21242C20.0808 2.756 19.5893 3.51248 19.3582 3.89978C18.7512 4.9122 18.5044 5.14549 17.4308 5.73436C16.8872 6.03107 16.7241 6.13072 16.509 6.28927C16.0537 6.62674 15.2905 7.32207 14.8284 7.82262C14.1739 8.53154 13.9406 8.85315 13.3381 9.89049C12.722 10.9482 12.5001 11.2517 11.9361 11.8157C11.5307 12.2188 11.1525 12.5427 10.3484 13.1746C9.32013 13.9832 8.92604 14.3184 8.53194 14.7193C8.25109 15.0047 8.06763 15.2244 7.57388 15.8699C6.78116 16.9049 6.5977 17.0952 5.38824 18.1574C5.1776 18.3432 4.56607 18.8935 4.02929 19.3782C3.49477 19.8652 2.95345 20.3544 2.82888 20.4677C2.70431 20.5809 2.42346 20.8255 2.20603 21.0112C1.96821 21.2128 1.44728 21.7134 0.905967 22.2547L0 23.1584L0.181193 23.249C0.670415 23.4981 1.16417 23.6612 1.74172 23.7676C1.96595 23.8084 2.74961 23.8016 3.15729 23.754C3.33849 23.7337 3.66917 23.702 3.89339 23.6816L4.30108 23.6453L4.39167 23.5615C5.11418 22.9047 5.54452 22.5174 5.97712 22.1324C6.26476 21.8764 6.68604 21.4891 6.91706 21.2717C7.61918 20.6058 7.68939 20.5401 7.94533 20.3114C8.23524 20.0532 8.58857 19.7678 8.87621 19.5617C9.08458 19.4122 9.80709 18.9728 9.97696 18.889C10.4594 18.658 12.3325 18.4858 13.0663 18.6082C13.5782 18.692 13.8681 18.8324 14.278 19.1925C14.4207 19.3171 14.5906 19.453 14.6517 19.4937C14.7741 19.5707 15.0005 19.6636 15.0708 19.6636C15.1115 19.6636 15.1138 19.6795 15.1138 19.8652C15.1138 19.9852 15.1251 20.0894 15.141 20.1211C15.1568 20.1506 15.415 20.4269 15.714 20.7394C16.3708 21.4212 16.5022 21.5525 16.8351 21.8583C17.116 22.1165 17.2202 22.2547 17.2904 22.4585C17.3447 22.6193 17.3493 22.8322 17.3017 22.9274C17.2338 23.0565 16.9552 23.1742 16.6222 23.2082C16.5475 23.2173 16.4388 23.2376 16.3799 23.2558C16.278 23.2897 16.2644 23.2875 16.0741 23.2286C15.825 23.1516 15.6211 23.1425 15.4898 23.2082C15.3856 23.258 14.9802 23.6408 14.9802 23.6861C14.9802 23.7042 14.9847 23.7178 14.9892 23.7178C14.9938 23.7178 15.1025 23.6521 15.2293 23.5729C15.5102 23.3939 15.6007 23.3713 15.8839 23.4052L16.09 23.4302V23.523C16.09 23.7563 16.253 23.8016 16.7355 23.7042C16.8238 23.6861 17.0526 23.6408 17.2451 23.6046C17.4376 23.5661 17.6482 23.523 17.7094 23.5049C17.9019 23.4528 18.2779 23.523 18.8351 23.7133L19.0865 23.7993L19.1159 23.9194C19.1748 24.1413 19.2201 24.1753 19.2473 24.019C19.2699 23.8764 19.2858 23.865 19.4103 23.899C19.4715 23.9126 19.63 23.9307 19.7614 23.9375C20.0309 23.9511 20.2529 23.9149 20.4545 23.822L20.5722 23.7654L20.6878 23.9239C20.7942 24.0643 20.8463 24.1119 20.8463 24.0621C20.8463 24.053 20.8191 23.9534 20.7874 23.8446C20.7557 23.7337 20.7353 23.6408 20.7421 23.634C20.7466 23.6272 20.8395 23.6046 20.9437 23.5796L21.1362 23.5366L21.3468 23.6363C22.049 23.9624 22.4906 23.9783 23.5914 23.7087C23.7726 23.6634 23.9288 23.6272 23.9402 23.6272C23.9515 23.6272 24.0761 23.6929 24.2188 23.7744C24.3614 23.856 24.4838 23.9171 24.4883 23.9103C24.5019 23.8967 24.3728 23.7359 24.2709 23.6453C24.0715 23.4664 23.8337 23.3781 23.5393 23.3781C23.2924 23.3758 23.3966 23.3328 23.6593 23.326C23.8836 23.3214 23.956 23.3396 24.1146 23.4415C24.1599 23.4732 24.2052 23.4913 24.2142 23.4845C24.2391 23.4573 23.9583 23.1991 23.8541 23.1516C23.7318 23.095 23.6208 23.095 23.2811 23.1493C22.7443 23.2354 22.5971 23.249 22.2845 23.2512C21.9063 23.2535 21.7387 23.2218 21.4895 23.104C21.3151 23.0225 21.2744 22.9862 20.6719 22.3883C20.0287 21.7496 19.6391 21.3283 19.2405 20.83L19.0185 20.5537L19.0593 20.3974C19.1363 20.103 19.1046 19.6138 18.98 19.2061L18.9483 19.0996L19.0434 19.0385C19.5168 18.7259 20.006 18.2412 20.3752 17.7158C20.6425 17.3375 20.921 16.7758 21.0728 16.3138C21.1543 16.0624 21.3038 15.7272 21.5167 15.3172C21.8972 14.5789 22.1124 14.2686 22.964 13.2199C23.6842 12.3343 23.836 12.1237 23.836 12.0059C23.836 11.9176 23.9153 11.6322 24.0851 11.1135C24.289 10.4884 24.3932 10.1328 24.4656 9.81348C24.5223 9.56207 24.5245 9.51678 24.5268 8.81465C24.5291 8.38885 24.5426 8.00608 24.5562 7.90868C24.5721 7.81582 24.5993 7.62557 24.6196 7.48967C24.6967 6.96874 24.8416 6.23265 24.9911 5.62112C25.0296 5.46484 25.0908 5.20211 25.127 5.03677C25.3218 4.17384 25.5098 3.9564 26.3047 3.67782C26.8211 3.49663 27.4508 3.32902 28.4632 3.1048C28.7577 3.03911 29 2.97796 29 2.9689C29 2.94852 28.1824 2.53404 27.7498 2.33472C26.8642 1.9293 26.1666 1.71414 25.3557 1.60316C25.1247 1.56918 25.0817 1.55559 24.9571 1.47858C24.6604 1.2906 24.3162 1.14111 23.9741 1.05278C23.7907 1.00522 23.6933 0.996158 23.3377 0.989363C23.1067 0.984833 22.8372 0.989363 22.7375 1.00069ZM17.4104 19.7406C17.4285 19.9241 17.5237 20.1324 17.7003 20.3612C17.9336 20.6692 18.561 21.2853 19.0683 21.702C19.3311 21.9195 19.6663 22.2184 19.8158 22.3702C20.1079 22.6646 20.5632 23.1697 20.5496 23.1833C20.5405 23.1901 19.9607 23.3441 19.8339 23.3713C19.7818 23.3826 19.3016 23.2558 18.9913 23.147C18.7558 23.0655 18.4772 22.9206 18.296 22.7869C18.0627 22.6171 17.7049 22.2479 17.4195 21.8855C17.2677 21.6952 17.0027 21.3736 16.8306 21.172C16.3006 20.5537 16.1443 20.2706 16.1624 19.958C16.167 19.8516 16.1851 19.7904 16.2191 19.7406L16.2689 19.6704L16.6041 19.6523C16.7876 19.6432 17.0163 19.6274 17.1092 19.6183C17.4263 19.5889 17.3946 19.5753 17.4104 19.7406Z" fill="white"/>
</svg>
